<svg preserveAspectRatio="none" width="100%" height="100%" overflow="visible" style="display: block;" viewBox="0 0 24 23.25" fill="none" xmlns="http://www.w3.org/2000/svg">
<path id="Alice Stroke" d="M12 1.01953C13.3086 1.01959 14.6679 1.63649 16.0781 2.88379C17.4882 4.13104 18.8727 5.94395 20.2031 8.16211C21.5266 10.3687 22.4261 12.459 22.7939 14.2822C23.1622 16.1079 22.9797 17.5595 22.2939 18.623C21.5753 19.7376 20.3023 20.6451 18.5137 21.2754C16.7299 21.904 14.5032 22.2304 12 22.2305C9.49675 22.2304 7.27013 21.904 5.48633 21.2754C3.69766 20.6451 2.42469 19.7376 1.70605 18.623C1.0203 17.5595 0.83779 16.1079 1.20605 14.2822C1.5739 12.459 2.47339 10.3687 3.79688 8.16211C5.12725 5.94402 6.51092 4.13106 7.9209 2.88379C9.33129 1.63617 10.6912 1.01953 12 1.01953Z" stroke="var(--stroke-0, black)" stroke-width="2.04"/>
</svg>
