<svg preserveAspectRatio="none" width="100%" height="100%" overflow="visible" style="display: block;" viewBox="0 0 20 19.375" fill="none" xmlns="http://www.w3.org/2000/svg">
<path id="Alice Stroke" d="M10 0.849609C11.0906 0.849659 12.2232 1.36386 13.3984 2.40332C14.5735 3.44269 15.7273 4.95329 16.8359 6.80176C17.9389 8.64074 18.6886 10.3829 18.9951 11.9023C19.302 13.4237 19.1496 14.6333 18.5781 15.5195C17.9792 16.4482 16.9181 17.2043 15.4277 17.7295C13.9413 18.2532 12.0859 18.5254 10 18.5254C7.9141 18.5254 6.05872 18.2532 4.57227 17.7295C3.08187 17.2043 2.02077 16.4482 1.42187 15.5195C0.850426 14.6333 0.69804 13.4237 1.00488 11.9023C1.31138 10.3829 2.06108 8.64074 3.16406 6.80176C4.27267 4.95342 5.42565 3.44271 6.60059 2.40332C7.77593 1.36361 8.90932 0.849609 10 0.849609Z" stroke="var(--stroke-0, black)" stroke-width="1.7"/>
</svg>
