<svg preserveAspectRatio="none" width="100%" height="100%" overflow="visible" style="display: block;" viewBox="0 0 18.5063 15.6917" fill="none" xmlns="http://www.w3.org/2000/svg">
<path id="Vector" d="M16.7307 0.368849C16.8962 0.16538 17.1351 0.0351128 17.3958 0.00612698C17.6565 -0.0228589 17.9182 0.0517581 18.1244 0.213894C18.3306 0.376029 18.4649 0.612699 18.4982 0.872889C18.5316 1.13308 18.4613 1.39595 18.3027 1.60485L7.67966 15.1188C7.54213 15.2938 7.3674 15.4359 7.16815 15.5349C6.96889 15.634 6.7501 15.6874 6.52763 15.6914C6.30516 15.6955 6.08458 15.6499 5.88188 15.5582C5.67918 15.4664 5.49943 15.3307 5.35566 15.1608L0.251664 9.12885C0.163289 9.02915 0.0957277 8.91279 0.0529491 8.78661C0.0101706 8.66044 -0.00696284 8.52698 0.00255509 8.39409C0.012073 8.2612 0.0480503 8.13155 0.108374 8.01276C0.168698 7.89396 0.252152 7.78842 0.353834 7.70233C0.455516 7.61624 0.573376 7.55134 0.700491 7.51144C0.827607 7.47153 0.961415 7.45743 1.09406 7.46996C1.2267 7.48249 1.3555 7.5214 1.47289 7.58441C1.59028 7.64741 1.6939 7.73324 1.77766 7.83685L6.48566 13.4008L16.7307 0.368849Z" fill="var(--fill-0, white)"/>
</svg>
