<svg width="18" height="14" viewBox="0 0 18 14.2499" fill="none" xmlns="http://www.w3.org/2000/svg">
<path d="M18 0.75C18 0.335786 17.6642 0 17.25 0C16.8358 0 16.5 0.335786 16.5 0.75V5.1501C16.5 5.84045 15.9404 6.4001 15.25 6.4001H2.54061L7.51829 1.34456C7.8089 1.0494 7.80522 0.574542 7.51006 0.28393C7.2149 -0.00668135 6.74005 -0.00299665 6.44943 0.29216L0.215571 6.62352C-0.0714881 6.91507 -0.0719094 7.38289 0.214624 7.67496L6.44453 14.0251C6.73461 14.3208 7.20946 14.3254 7.50514 14.0353C7.80082 13.7452 7.80536 13.2703 7.51528 12.9747L2.53683 7.9001H15.25C16.7688 7.9001 18 6.66888 18 5.1501V0.75Z" fill="black"/>
</svg>
