<svg preserveAspectRatio="none" width="100%" height="100%" overflow="visible" style="display: block;" viewBox="0 0 18 18" fill="none" xmlns="http://www.w3.org/2000/svg">
<path id="Union" d="M9 0C13.9706 0 18 4.02944 18 9C18 13.9706 13.9706 18 9 18C4.02944 18 0 13.9706 0 9C0 4.02944 4.02944 0 9 0ZM11.6611 10.5908C10.8481 10.6893 9.96036 10.75 9 10.75C8.03926 10.75 7.15117 10.6893 6.33789 10.5908C6.69092 13.6814 8.03284 15.5047 8.99902 16.4756C9.96527 15.505 11.308 13.6823 11.6611 10.5908ZM1.50879 9.34766C1.65619 12.5779 3.84645 15.2745 6.81836 16.1768C5.90539 14.8975 5.02932 13.0264 4.80566 10.3467C3.88844 10.1631 3.09847 9.93654 2.44141 9.70801C2.09252 9.58666 1.78184 9.46336 1.50879 9.34766ZM16.4902 9.34766C16.2174 9.46325 15.9071 9.58678 15.5586 9.70801C14.9013 9.93662 14.111 10.163 13.1934 10.3467C12.9695 13.0184 12.0949 14.8919 11.1826 16.1758C14.1539 15.2732 16.3428 12.5775 16.4902 9.34766ZM8.99902 1.52246C7.87745 2.64909 6.25 4.92608 6.25 9C6.25 9.02284 6.2499 9.04563 6.25 9.06836C7.07634 9.18009 7.99402 9.25 9 9.25C10.0056 9.25 10.9229 9.18002 11.749 9.06836C11.7491 9.04563 11.75 9.02284 11.75 9C11.75 4.92491 10.1206 2.64875 8.99902 1.52246ZM6.86035 1.81055C4.15022 2.6159 2.0825 4.91107 1.60547 7.74707C1.93444 7.90527 2.37819 8.0988 2.93359 8.29199C3.44582 8.47016 4.05314 8.64832 4.75195 8.80273C4.79082 5.49565 5.80505 3.26877 6.86035 1.81055ZM11.1426 1.81152C12.1958 3.2628 13.2084 5.48384 13.2471 8.80273C13.9463 8.64827 14.554 8.47024 15.0664 8.29199C15.6214 8.09896 16.0647 7.9052 16.3936 7.74707C15.9166 4.91218 13.8512 2.61765 11.1426 1.81152Z" fill="var(--fill-0, black)"/>
</svg>
