<svg preserveAspectRatio="none" width="100%" height="100%" overflow="visible" style="display: block;" viewBox="0 0 20 20" fill="none" xmlns="http://www.w3.org/2000/svg">
<g id="iconMic">
<g id="Shape">
<path fill-rule="evenodd" clip-rule="evenodd" d="M9.99902 0C7.3657 0 5.23098 2.12665 5.23098 4.75V9.25C5.23098 11.8734 7.3657 14 9.99902 14C12.6323 14 14.7671 11.8734 14.7671 9.25V4.75C14.7671 2.12665 12.6323 0 9.99902 0ZM13.2614 9.25V4.75C13.2614 2.95507 11.8008 1.5 9.99902 1.5C8.19728 1.5 6.73667 2.95507 6.73667 4.75V9.25C6.73667 11.0449 8.19728 12.5 9.99902 12.5C11.8008 12.5 13.2614 11.0449 13.2614 9.25Z" fill="var(--fill-0, black)"/>
<path d="M17.2472 8.50098C17.6629 8.50098 18 8.83676 18 9.25098C18 13.3536 14.8006 16.7118 10.7519 16.9845V19.25C10.7519 19.6643 10.4148 20 9.99902 20C9.58323 20 9.24617 19.6643 9.24617 19.25V16.9844C5.19833 16.7108 2 13.3531 2 9.25113C2 8.83692 2.33706 8.50113 2.75285 8.50113C3.16864 8.50113 3.5057 8.83692 3.5057 9.25113C3.5057 12.7036 6.31511 15.5024 9.78071 15.5024H10.2191C13.6848 15.5024 16.4943 12.7035 16.4943 9.25098C16.4943 8.83676 16.8314 8.50098 17.2472 8.50098Z" fill="var(--fill-0, black)"/>
</g>
</g>
</svg>
