<svg width="16" height="20" viewBox="0 0 16 20" fill="none" xmlns="http://www.w3.org/2000/svg">
<path d="M4.25 7.5C3.83579 7.5 3.5 7.83579 3.5 8.25C3.5 8.66421 3.83579 9 4.25 9H11.75C12.1642 9 12.5 8.66421 12.5 8.25C12.5 7.83579 12.1642 7.5 11.75 7.5H4.25Z" fill="black"/>
<path d="M3.5 11.25C3.5 10.8358 3.83579 10.5 4.25 10.5H11.75C12.1642 10.5 12.5 10.8358 12.5 11.25C12.5 11.6642 12.1642 12 11.75 12H4.25C3.83579 12 3.5 11.6642 3.5 11.25Z" fill="black"/>
<path d="M4.25 13.5C3.83579 13.5 3.5 13.8358 3.5 14.25C3.5 14.6642 3.83579 15 4.25 15H11.75C12.1642 15 12.5 14.6642 12.5 14.25C12.5 13.8358 12.1642 13.5 11.75 13.5H4.25Z" fill="black"/>
<path fill-rule="evenodd" clip-rule="evenodd" d="M10 2C10 0.895431 9.10457 0 8 0C6.89543 0 6 0.895431 6 2H2C0.895431 2 0 2.89543 0 4V18C0 19.1046 0.895431 20 2 20H14C15.1046 20 16 19.1046 16 18V4C16 2.89543 15.1046 2 14 2H10ZM8 2.5C8.27614 2.5 8.5 2.27614 8.5 2C8.5 1.72386 8.27614 1.5 8 1.5C7.72386 1.5 7.5 1.72386 7.5 2C7.5 2.27614 7.72386 2.5 8 2.5ZM14.5 18V4C14.5 3.72386 14.2761 3.5 14 3.5H9.60827C8.68077 4.28105 7.31923 4.28105 6.39173 3.5H2C1.72386 3.5 1.5 3.72386 1.5 4V18C1.5 18.2761 1.72386 18.5 2 18.5H14C14.2761 18.5 14.5 18.2761 14.5 18Z" fill="black"/>
</svg>
