<svg width="22" height="10" viewBox="0 0 22.1348 10.1719" fill="none" xmlns="http://www.w3.org/2000/svg">
<path d="M4.25879 7.28711H2.72754L2.20801 10.0898H1.05957L1.5791 7.28711H0V6.20703H1.78418L2.18066 4.06738H0.519531V2.98047H2.38574L2.91895 0.136719H4.06055L3.52734 2.98047H5.06543L5.59863 0.136719H6.74023L6.20703 2.98047H7.62891V4.06738H6.00195L5.60547 6.20703H7.11621V7.28711H5.40039L4.88086 10.0898H3.73926L4.25879 7.28711ZM2.93262 6.20703H4.46387L4.86035 4.06738H3.3291L2.93262 6.20703Z" fill="#050505"/>
<path d="M13.1318 10.0898H11.4775V2.09863L9.03711 2.93262V1.53125L12.9199 0.102539H13.1318V10.0898Z" fill="#050505"/>
<path d="M18.2383 7.16406C18.2383 6.55794 18.3135 6.07487 18.4639 5.71484C18.6143 5.35482 18.9105 4.96061 19.3525 4.53223C19.7992 4.09928 20.0817 3.79167 20.2002 3.60938C20.3825 3.33138 20.4736 3.0306 20.4736 2.70703C20.4736 2.27865 20.3665 1.9528 20.1523 1.72949C19.9427 1.50163 19.6328 1.3877 19.2227 1.3877C18.8307 1.3877 18.514 1.49935 18.2725 1.72266C18.0355 1.94141 17.917 2.23991 17.917 2.61816H16.2559C16.265 1.81152 16.5384 1.1735 17.0762 0.704102C17.6185 0.234701 18.334 0 19.2227 0C20.1387 0 20.8519 0.232422 21.3623 0.697266C21.8773 1.16211 22.1348 1.81152 22.1348 2.64551C22.1348 3.38835 21.7884 4.11979 21.0957 4.83984L20.2549 5.66699C19.9541 6.00879 19.7992 6.50781 19.79 7.16406H18.2383ZM18.1221 9.29004C18.1221 9.02116 18.2064 8.80469 18.375 8.64062C18.5436 8.47201 18.7715 8.3877 19.0586 8.3877C19.3503 8.3877 19.5804 8.47428 19.749 8.64746C19.9176 8.81608 20.002 9.03027 20.002 9.29004C20.002 9.54069 19.9199 9.75033 19.7559 9.91895C19.5918 10.0876 19.3594 10.1719 19.0586 10.1719C18.7578 10.1719 18.5254 10.0876 18.3613 9.91895C18.2018 9.75033 18.1221 9.54069 18.1221 9.29004Z" fill="#050505"/>
</svg>
