<svg width="11" height="14" viewBox="0 0 11.2 14" fill="none" xmlns="http://www.w3.org/2000/svg">
<path fill-rule="evenodd" clip-rule="evenodd" d="M5.6001 0C3.94324 0 2.6001 1.34315 2.6001 3V7C2.6001 8.65685 3.94324 10 5.6001 10C7.25695 10 8.6001 8.65685 8.6001 7V3C8.6001 1.34315 7.25695 0 5.6001 0ZM7.4001 7V3C7.4001 2.00589 6.59421 1.2 5.6001 1.2C4.60599 1.2 3.8001 2.00589 3.8001 3V7C3.8001 7.99411 4.60599 8.8 5.6001 8.8C6.59421 8.8 7.4001 7.99411 7.4001 7Z" fill="black"/>
<path d="M6.2 12.5659C8.78016 12.2741 11.2 10.1279 11.2 6.9999C11.2 6.66853 10.9314 6.3999 10.6 6.3999C10.2686 6.3999 10 6.66853 10 6.9999C10 9.63021 7.80829 11.3999 5.6 11.3999C3.39171 11.3999 1.2 9.63021 1.2 6.9999C1.2 6.66853 0.931371 6.3999 0.6 6.3999C0.268629 6.3999 0 6.66853 0 6.9999C0 10.1279 2.41984 12.2741 5 12.5659V13.4C5 13.7314 5.26863 14 5.6 14C5.93137 14 6.2 13.7314 6.2 13.4V12.5659Z" fill="black"/>
</svg>
