<svg width="20" height="18" viewBox="0 0 22 20.0032" fill="none" xmlns="http://www.w3.org/2000/svg">
<path fill-rule="evenodd" clip-rule="evenodd" d="M15.5 9.99414C15.5 12.4794 13.4853 14.4941 11 14.4941C8.51472 14.4941 6.5 12.4794 6.5 9.99414C6.5 7.50886 8.51472 5.49414 11 5.49414C13.4853 5.49414 15.5 7.50886 15.5 9.99414ZM14 9.99414C14 11.651 12.6569 12.9941 11 12.9941C9.34315 12.9941 8 11.651 8 9.99414C8 8.33729 9.34315 6.99414 11 6.99414C12.6569 6.99414 14 8.33729 14 9.99414Z" fill="black"/>
<path fill-rule="evenodd" clip-rule="evenodd" d="M19.4303 6.85175C18.8961 6.71819 18.4626 6.33733 18.1876 5.86024C17.9135 5.38472 17.8044 4.82481 17.9553 4.29712L18.0805 3.8595C18.424 2.65887 17.9062 1.37857 16.8247 0.754173L16.1371 0.357187C15.0779 -0.254376 13.7383 -0.0665466 12.8881 0.812759L12.649 1.06007C12.2223 1.5014 11.6139 1.70397 11 1.70397C10.3859 1.70397 9.77744 1.50137 9.3506 1.05992L9.11171 0.812862C8.2616 -0.0663419 6.92221 -0.254149 5.86308 0.357344L5.17517 0.754508C4.09375 1.37887 3.57603 2.6591 3.91946 3.85966L4.04457 4.297C4.19555 4.82482 4.08638 5.38486 3.81225 5.8605C3.53718 6.33776 3.10356 6.71877 2.56916 6.85237L2.10121 6.96936C0.866314 7.27808 0 8.38764 0 9.66054V10.3284C0 11.6015 0.86648 12.7113 2.10161 13.0201L2.5673 13.1365C3.10316 13.2705 3.53795 13.6525 3.81397 14.1309C4.08935 14.6083 4.19921 15.1704 4.04765 15.7003L3.92158 16.141C3.57671 17.3465 4.09659 18.6321 5.18252 19.2591L5.84708 19.6428C6.91543 20.2596 8.26647 20.0701 9.12397 19.1833L9.38072 18.9178C9.79987 18.4843 10.397 18.2845 11 18.2845C11.6029 18.2845 12.1999 18.4842 12.6189 18.9176L12.8759 19.1834C13.7335 20.0703 15.0846 20.2598 16.1531 19.6429L16.8174 19.2594C17.9034 18.6324 18.4233 17.3467 18.0784 16.1411L17.9524 15.7006C17.8008 15.1706 17.9107 14.6083 18.1861 14.1307C18.4623 13.6521 18.8972 13.2699 19.4333 13.1358L19.8986 13.0195C21.1336 12.7108 22 11.6011 22 10.3281V9.66028C22 8.38725 21.1336 7.27757 19.8986 6.96882L19.4303 6.85175ZM16.6384 3.44695L16.5132 3.88458C16.2292 4.8773 16.4534 5.85518 16.888 6.60931C17.3213 7.36093 18.0579 8.05481 19.0665 8.30697L19.5348 8.42403C20.102 8.56585 20.5 9.07555 20.5 9.66028V10.3281C20.5 10.9128 20.1021 11.4225 19.5348 11.5643L19.0695 11.6806C18.0589 11.9333 17.321 12.6285 16.8868 13.3812C16.4508 14.1371 16.2254 15.1176 16.5102 16.1132L16.6362 16.5537C16.7918 17.0975 16.5573 17.6775 16.0674 17.9603L15.4031 18.3439C14.9307 18.6166 14.3334 18.5328 13.9542 18.1407L13.6973 17.875C12.9359 17.0875 11.9147 16.7845 11 16.7845C10.0852 16.7845 9.06384 17.0876 8.30237 17.8751L8.04562 18.1406C7.66656 18.5327 7.06934 18.6164 6.59708 18.3437L5.93252 17.9601C5.44268 17.6772 5.20817 17.0973 5.36373 16.5535L5.4898 16.1128C5.77453 15.1174 5.54925 14.1371 5.11326 13.3814C4.67914 12.6289 3.94139 11.9338 2.93111 11.6813L2.46541 11.5649C1.89803 11.423 1.5 10.9132 1.5 10.3284V9.66054C1.5 9.07594 1.89787 8.56636 2.46501 8.42457L2.93296 8.30759C3.94181 8.05537 4.67856 7.3613 5.11185 6.60952C5.54654 5.8553 5.77073 4.87731 5.48672 3.88446L5.36161 3.44712C5.20748 2.90831 5.43983 2.33375 5.92517 2.05355L6.61308 1.65638C7.07612 1.38904 7.6617 1.47115 8.03336 1.85553L8.27225 2.10259C9.04247 2.89916 10.076 3.20397 11 3.20397C11.9239 3.20397 12.9572 2.89919 13.7273 2.10274L13.9665 1.85543C14.3382 1.47094 14.924 1.38881 15.3871 1.65623L16.0747 2.05321C16.5601 2.33345 16.7925 2.90808 16.6384 3.44695Z" fill="black"/>
</svg>
