<svg preserveAspectRatio="none" width="100%" height="100%" overflow="visible" style="display: block;" viewBox="0 0 20 20" fill="none" xmlns="http://www.w3.org/2000/svg">
<g id="Vector">
<path d="M3.15297 7.72036C2.98648 7.64868 2.86161 7.52124 2.78668 7.36195L2.24558 6.14336C2.14568 5.95221 1.85432 5.95221 1.75443 6.14336L1.21332 7.36195C1.14673 7.52124 1.01353 7.64868 0.847036 7.72036L0.156088 8.01504C-0.0520292 8.11062 -0.0520292 8.38938 0.156088 8.48496L0.847036 8.77965C1.01353 8.85133 1.1384 8.97876 1.21332 9.13805L1.75443 10.3566C1.85432 10.5478 2.14568 10.5478 2.24558 10.3566L2.78668 9.13805C2.85328 8.97876 2.98648 8.85133 3.15297 8.77965L3.84391 8.48496C4.05203 8.38938 4.05203 8.11062 3.84391 8.01504L3.15297 7.72036Z" fill="var(--fill-0, black)"/>
<path d="M6.15297 1.72036C5.98648 1.64868 5.8616 1.52124 5.78668 1.36195L5.24558 0.143363C5.14568 -0.0477876 4.85432 -0.0477876 4.75443 0.143363L4.21332 1.36195C4.14673 1.52124 4.01353 1.64868 3.84704 1.72036L3.15609 2.01504C2.94797 2.11062 2.94797 2.38938 3.15609 2.48496L3.84704 2.77965C4.01353 2.85133 4.1384 2.97876 4.21332 3.13805L4.75443 4.35664C4.85432 4.54779 5.14568 4.54779 5.24558 4.35664L5.78668 3.13805C5.85328 2.97876 5.98648 2.85133 6.15297 2.77965L6.84391 2.48496C7.05203 2.38938 7.05203 2.11062 6.84391 2.01504L6.15297 1.72036Z" fill="var(--fill-0, black)"/>
<path d="M18.5177 15.0584C18.2263 14.931 18.0078 14.7044 17.8767 14.4212L16.9298 12.2549C16.7549 11.915 16.2451 11.915 16.0702 12.2549L15.1233 14.4212C15.0068 14.7044 14.7737 14.931 14.4823 15.0584L13.2732 15.5823C12.9089 15.7522 12.9089 16.2478 13.2732 16.4177L14.4823 16.9416C14.7737 17.069 14.9922 17.2956 15.1233 17.5788L16.0702 19.7451C16.2451 20.085 16.7549 20.085 16.9298 19.7451L17.8767 17.5788C17.9932 17.2956 18.2263 17.069 18.5177 16.9416L19.7268 16.4177C20.0911 16.2478 20.0911 15.7522 19.7268 15.5823L18.5177 15.0584Z" fill="var(--fill-0, black)"/>
<path fill-rule="evenodd" clip-rule="evenodd" d="M14.9965 9.72585L12.1712 1.81967C11.7761 0.714087 10.2104 0.714075 9.81536 1.81967L4.03715 17.989C3.89785 18.3788 4.10135 18.8076 4.49168 18.9467C4.88202 19.0858 5.31136 18.8826 5.45066 18.4928L7.86337 11.7412H14.1006L14.9965 9.72585ZM10.9933 2.98267L13.5876 10.2424L8.39897 10.2424L10.9933 2.98267Z" fill="var(--fill-0, black)"/>
</g>
</svg>
