<svg width="20" height="20" viewBox="0 0 20 20" fill="none" xmlns="http://www.w3.org/2000/svg">
<path d="M6.29553 12.0854C5.93515 12.2882 5.80337 12.7493 6.05775 13.0753C6.44871 13.5765 6.93312 14.0004 7.48654 14.3222C8.25662 14.77 9.13235 15.004 10.0232 14.9998C10.914 14.9957 11.7875 14.7537 12.5534 14.2988C13.1038 13.9718 13.5843 13.5435 13.9706 13.0387C14.2219 12.7103 14.0859 12.2505 13.7237 12.051C13.3614 11.8515 12.9112 11.9905 12.6394 12.3021C12.3962 12.5809 12.1094 12.8206 11.7886 13.0111C11.2521 13.3298 10.6402 13.4993 10.0162 13.5022C9.39224 13.5051 8.77882 13.3412 8.2394 13.0275C7.91689 12.84 7.62784 12.603 7.3821 12.3265C7.10738 12.0173 6.65591 11.8825 6.29553 12.0854Z" fill="black"/>
<path d="M8 7.75C8 8.44036 7.44036 9 6.75 9C6.05964 9 5.5 8.44036 5.5 7.75C5.5 7.05964 6.05964 6.5 6.75 6.5C7.44036 6.5 8 7.05964 8 7.75Z" fill="black"/>
<path d="M13.25 9C13.9404 9 14.5 8.44036 14.5 7.75C14.5 7.05964 13.9404 6.5 13.25 6.5C12.5596 6.5 12 7.05964 12 7.75C12 8.44036 12.5596 9 13.25 9Z" fill="black"/>
<path fill-rule="evenodd" clip-rule="evenodd" d="M20 10C20 15.5228 15.5228 20 10 20C4.47715 20 0 15.5228 0 10C0 4.47715 4.47715 0 10 0C15.5228 0 20 4.47715 20 10ZM18.5 10C18.5 14.6944 14.6944 18.5 10 18.5C5.30558 18.5 1.5 14.6944 1.5 10C1.5 5.30558 5.30558 1.5 10 1.5C14.6944 1.5 18.5 5.30558 18.5 10Z" fill="black"/>
</svg>
