<svg preserveAspectRatio="none" width="100%" height="100%" overflow="visible" style="display: block;" viewBox="0 0 10.0704 11.748" fill="none" xmlns="http://www.w3.org/2000/svg">
<path id="Exclude" d="M5.35713 0C5.60872 0 5.799 0.203812 5.89505 0.441081L10.0235 10.6592C10.1725 11.1141 9.96372 11.6701 9.44485 11.7415C9.08241 11.763 8.82522 11.5523 8.66198 11.2516L7.64147 8.50586H2.44209L1.41995 11.2549C1.30793 11.5559 1.04604 11.7243 0.733103 11.748C0.203088 11.7457 -0.14616 11.1702 0.0600889 10.6592L4.18769 0.441081L4.18688 0.440267L4.18851 0.437826C4.29938 0.208534 4.47917 0 4.7248 0H5.35713ZM2.94909 7.2526H7.13366L5.04056 1.7985L2.94909 7.2526Z" fill="var(--fill-0, black)"/>
</svg>
