<svg preserveAspectRatio="none" width="100%" height="100%" overflow="visible" style="display: block;" viewBox="0 0 18 14" fill="none" xmlns="http://www.w3.org/2000/svg">
<g id="Union">
<path d="M4 6C4.55228 6 5 5.55228 5 5C5 4.44772 4.55228 4 4 4C3.44772 4 3 4.44772 3 5C3 5.55228 3.44772 6 4 6Z" fill="var(--fill-0, black)"/>
<path d="M5 9C5 9.55228 4.55228 10 4 10C3.44772 10 3 9.55228 3 9C3 8.44772 3.44772 8 4 8C4.55228 8 5 8.44772 5 9Z" fill="var(--fill-0, black)"/>
<path d="M7.33008 6C7.88236 6 8.33008 5.55228 8.33008 5C8.33008 4.44772 7.88236 4 7.33008 4C6.77779 4 6.33008 4.44772 6.33008 5C6.33008 5.55228 6.77779 6 7.33008 6Z" fill="var(--fill-0, black)"/>
<path d="M11.6602 5C11.6602 5.55228 11.2124 6 10.6602 6C10.1079 6 9.66016 5.55228 9.66016 5C9.66016 4.44772 10.1079 4 10.6602 4C11.2124 4 11.6602 4.44772 11.6602 5Z" fill="var(--fill-0, black)"/>
<path d="M14 6C14.5523 6 15 5.55228 15 5C15 4.44772 14.5523 4 14 4C13.4477 4 13 4.44772 13 5C13 5.55228 13.4477 6 14 6Z" fill="var(--fill-0, black)"/>
<path d="M15 9C15 9.55228 14.5523 10 14 10C13.4477 10 13 9.55228 13 9C13 8.44772 13.4477 8 14 8C14.5523 8 15 8.44772 15 9Z" fill="var(--fill-0, black)"/>
<path d="M6.725 8.25C6.32459 8.25 6 8.57459 6 8.975C6 9.37541 6.32459 9.7 6.725 9.7H11.275C11.6754 9.7 12 9.37541 12 8.975C12 8.57459 11.6754 8.25 11.275 8.25H6.725Z" fill="var(--fill-0, black)"/>
<path fill-rule="evenodd" clip-rule="evenodd" d="M0 2C0 0.895431 0.895431 0 2 0H16C17.1046 0 18 0.895431 18 2V12C18 13.1046 17.1046 14 16 14H2C0.89543 14 0 13.1046 0 12V2ZM2 1.5H16C16.2761 1.5 16.5 1.72386 16.5 2V12C16.5 12.2761 16.2761 12.5 16 12.5H2C1.72386 12.5 1.5 12.2761 1.5 12V2C1.5 1.72386 1.72386 1.5 2 1.5Z" fill="var(--fill-0, black)"/>
</g>
</svg>
