<svg width="20" height="16" viewBox="0 0 20 16" fill="none" xmlns="http://www.w3.org/2000/svg">
<path fill-rule="evenodd" clip-rule="evenodd" d="M17 1.5H3C2.17157 1.5 1.5 2.17157 1.5 3V13C1.5 13.8284 2.17157 14.5 3 14.5H17C17.8284 14.5 18.5 13.8284 18.5 13V3C18.5 2.17157 17.8284 1.5 17 1.5ZM3 0C1.34315 0 0 1.34315 0 3V13C0 14.6569 1.34315 16 3 16H17C18.6569 16 20 14.6569 20 13V3C20 1.34315 18.6569 0 17 0H3Z" fill="black"/>
<path d="M6 5C6 5.55228 5.55228 6 5 6C4.44772 6 4 5.55228 4 5C4 4.44772 4.44772 4 5 4C5.55228 4 6 4.44772 6 5Z" fill="black"/>
<path d="M9.33333 5C9.33333 5.55228 8.88562 6 8.33333 6C7.78105 6 7.33333 5.55228 7.33333 5C7.33333 4.44772 7.78105 4 8.33333 4C8.88562 4 9.33333 4.44772 9.33333 5Z" fill="black"/>
<path d="M12.6667 5C12.6667 5.55228 12.219 6 11.6667 6C11.1144 6 10.6667 5.55228 10.6667 5C10.6667 4.44772 11.1144 4 11.6667 4C12.219 4 12.6667 4.44772 12.6667 5Z" fill="black"/>
<path d="M16 5C16 5.55228 15.5523 6 15 6C14.4477 6 14 5.55228 14 5C14 4.44772 14.4477 4 15 4C15.5523 4 16 4.44772 16 5Z" fill="black"/>
<path d="M6 8.5C6 9.05228 5.55228 9.5 5 9.5C4.44772 9.5 4 9.05228 4 8.5C4 7.94772 4.44772 7.5 5 7.5C5.55228 7.5 6 7.94772 6 8.5Z" fill="black"/>
<path d="M9.33333 8.5C9.33333 9.05228 8.88562 9.5 8.33333 9.5C7.78105 9.5 7.33333 9.05228 7.33333 8.5C7.33333 7.94772 7.78105 7.5 8.33333 7.5C8.88562 7.5 9.33333 7.94772 9.33333 8.5Z" fill="black"/>
<path d="M12.6667 8.5C12.6667 9.05228 12.219 9.5 11.6667 9.5C11.1144 9.5 10.6667 9.05228 10.6667 8.5C10.6667 7.94772 11.1144 7.5 11.6667 7.5C12.219 7.5 12.6667 7.94772 12.6667 8.5Z" fill="black"/>
<path d="M16 8.5C16 9.05228 15.5523 9.5 15 9.5C14.4477 9.5 14 9.05228 14 8.5C14 7.94772 14.4477 7.5 15 7.5C15.5523 7.5 16 7.94772 16 8.5Z" fill="black"/>
<path d="M6 11.75C6 11.3358 6.33579 11 6.75 11H13.25C13.6642 11 14 11.3358 14 11.75C14 12.1642 13.6642 12.5 13.25 12.5H6.75C6.33579 12.5 6 12.1642 6 11.75Z" fill="black"/>
</svg>
