<svg preserveAspectRatio="none" width="100%" height="100%" overflow="visible" style="display: block;" viewBox="0 0 18.9472 14" fill="none" xmlns="http://www.w3.org/2000/svg">
<g id="Union">
<path d="M7.66694 10.5303C7.37404 10.2374 7.37404 9.76256 7.66694 9.46967L10.1366 7L7.66694 4.53033C7.37404 4.23744 7.37404 3.76256 7.66694 3.46967C7.95983 3.17678 8.4347 3.17678 8.7276 3.46967L11.1973 5.93934L13.6669 3.46967C13.9598 3.17678 14.4347 3.17678 14.7276 3.46967C15.0205 3.76256 15.0205 4.23744 14.7276 4.53033L12.2579 7L14.7276 9.46967C15.0205 9.76256 15.0205 10.2374 14.7276 10.5303C14.4347 10.8232 13.9598 10.8232 13.6669 10.5303L11.1973 8.06066L8.7276 10.5303C8.4347 10.8232 7.95983 10.8232 7.66694 10.5303Z" fill="var(--fill-0, black)"/>
<path fill-rule="evenodd" clip-rule="evenodd" d="M4.84932 0.686042C5.22915 0.250178 5.779 0 6.35714 0H16.9472C18.0517 0 18.9472 0.895431 18.9472 2V12C18.9472 13.1046 18.0517 14 16.9472 14H6.35714C5.779 14 5.22915 13.7498 4.84932 13.314L0.492181 8.31396C-0.16406 7.56089 -0.16406 6.43911 0.492181 5.68604L4.84932 0.686042ZM6.35714 1.5H16.9472C17.2233 1.5 17.4472 1.72386 17.4472 2V12C17.4472 12.2761 17.2233 12.5 16.9472 12.5H6.35714C6.21261 12.5 6.07514 12.4375 5.98019 12.3285L1.62305 7.32849C1.45898 7.14022 1.45898 6.85978 1.62305 6.67151L5.98019 1.67151C6.07514 1.56254 6.21261 1.5 6.35714 1.5Z" fill="var(--fill-0, black)"/>
</g>
</svg>
